<svg width="24" height="24" viewBox="0 0 24 24" fill="none" xmlns="http://www.w3.org/2000/svg">
<path d="M21.0998 4.3L12.3998 0.7C12.1998 0.6 11.8998 0.6 11.5998 0.7L2.8998 4.3C2.4998 4.4 2.2998 4.8 2.2998 5.2V13.5C2.2998 17.3 7.0998 21 11.5998 23.3C11.8998 23.4 12.1998 23.4 12.4998 23.3C16.9998 21 21.7998 17.3 21.7998 13.5V5.2C21.6998 4.8 21.4998 4.4 21.0998 4.3ZM17.7998 12.3C17.7998 12.6 17.4998 12.9 17.1998 12.9H13.3998V16.6C13.3998 16.9 13.0998 17.2 12.7998 17.2H11.1998C10.8998 17.2 10.5998 16.9 10.5998 16.6V12.9H6.89981C6.5998 12.9 6.2998 12.6 6.2998 12.3V10.7C6.2998 10.4 6.5998 10.1 6.89981 10.1H10.6998V6.3C10.6998 6 10.9998 5.7 11.2998 5.7H12.8998C13.1998 5.7 13.4998 6 13.4998 6.3V10H17.2998C17.5998 10 17.8998 10.3 17.8998 10.6V12.3H17.7998Z" fill="#ABB5BF"/>
</svg>
