<svg width="24" height="24" viewBox="0 0 24 24" fill="none" xmlns="http://www.w3.org/2000/svg">
<path fill-rule="evenodd" clip-rule="evenodd" d="M19.0381 12.141L17.4181 14.351C17.372 14.4148 17.3113 14.4667 17.2412 14.5026C17.171 14.5384 17.0934 14.5571 17.0146 14.5571C16.9359 14.5571 16.8582 14.5384 16.7881 14.5026C16.7179 14.4667 16.6573 14.4148 16.6111 14.351L14.9921 12.141C14.9374 12.0665 14.9044 11.9783 14.8968 11.8861C14.8892 11.794 14.9073 11.7016 14.949 11.6191C14.9908 11.5366 15.0546 11.4674 15.1333 11.419C15.2121 11.3706 15.3027 11.345 15.3951 11.345H16.1831C16.1061 10.696 15.8787 10.0739 15.5192 9.52818C15.1597 8.98241 14.678 8.52798 14.1121 8.20096C13.4731 7.83731 12.7504 7.64609 12.0151 7.64609C11.2798 7.64609 10.5572 7.83731 9.91814 8.20096C9.73447 8.30731 9.51609 8.33635 9.31102 8.28168C9.10594 8.22702 8.93099 8.09312 8.82464 7.90946C8.71829 7.7258 8.68925 7.50741 8.74392 7.30234C8.79858 7.09727 8.93247 6.92231 9.11614 6.81596C10.8811 5.79396 13.1471 5.79396 14.9141 6.81596C15.7937 7.32551 16.5246 8.05639 17.0341 8.93596C17.4621 9.67596 17.7101 10.501 17.7821 11.345H18.6351C18.7276 11.345 18.8182 11.3706 18.897 11.419C18.9757 11.4674 19.0395 11.5366 19.0813 11.6191C19.123 11.7016 19.1411 11.794 19.1335 11.8861C19.1259 11.9783 19.0929 12.0665 19.0381 12.141ZM14.9141 16.854C14.0331 17.3643 13.0333 17.6337 12.0151 17.635C10.9978 17.6332 9.99877 17.3643 9.11797 16.8552C8.23718 16.3461 7.50551 15.6146 6.99614 14.734C6.57232 13.9958 6.31658 13.1733 6.24714 12.325H5.45914C5.36687 12.3248 5.27644 12.2992 5.19785 12.2508C5.11926 12.2025 5.05558 12.1333 5.01387 12.051C4.97215 11.9687 4.95401 11.8765 4.96148 11.7845C4.96894 11.6926 5.0017 11.6045 5.05614 11.53L6.61114 9.40696C6.6573 9.34314 6.71794 9.29118 6.78809 9.25535C6.85823 9.21952 6.93587 9.20084 7.01464 9.20084C7.0934 9.20084 7.17104 9.21952 7.24119 9.25535C7.31133 9.29118 7.37197 9.34314 7.41814 9.40696L8.97414 11.53C9.02863 11.6045 9.0614 11.6927 9.06882 11.7848C9.07624 11.8768 9.05802 11.9691 9.01618 12.0515C8.97434 12.1338 8.91052 12.2029 8.83179 12.2512C8.75305 12.2995 8.66249 12.325 8.57014 12.325H7.84814C7.92465 12.9741 8.15162 13.5964 8.51098 14.1424C8.87034 14.6884 9.35217 15.143 9.91814 15.47C10.5573 15.8332 11.2799 16.0242 12.0151 16.0242C12.7503 16.0242 13.4729 15.8332 14.1121 15.47C14.2031 15.4144 14.3043 15.3776 14.4097 15.3617C14.5151 15.3458 14.6226 15.3512 14.7259 15.3774C14.8293 15.4037 14.9263 15.4503 15.0113 15.5146C15.0964 15.5788 15.1677 15.6594 15.2212 15.7517C15.2746 15.8439 15.3091 15.9459 15.3226 16.0516C15.336 16.1574 15.3282 16.2647 15.2996 16.3674C15.271 16.4701 15.2222 16.5661 15.156 16.6496C15.0898 16.7332 15.0076 16.8026 14.9141 16.854ZM12.0151 0.834961C5.93914 0.834961 1.01514 5.75996 1.01514 11.835C1.01514 17.91 5.93914 22.835 12.0151 22.835C18.0901 22.835 23.0151 17.91 23.0151 11.835C23.0151 5.75996 18.0901 0.834961 12.0151 0.834961Z" fill="#B0B8C1"/>
</svg>
