<svg width="24" height="24" viewBox="0 0 24 24" fill="none" xmlns="http://www.w3.org/2000/svg">
<mask id="mask0_55068_182878" style="mask-type:luminance" maskUnits="userSpaceOnUse" x="1" y="2" width="23" height="22">
<path fill-rule="evenodd" clip-rule="evenodd" d="M1 2.40039H23.783V23.9462H1V2.40039Z" fill="white"/>
</mask>
<g mask="url(#mask0_55068_182878)">
<path fill-rule="evenodd" clip-rule="evenodd" d="M5.62 18.3904H8.21V11.4504H5.62V18.3904ZM10.679 20.3484L11.25 19.3484V18.3904H10.45V11.4504H13.05V12.5584C13.166 12.4354 13.283 12.3114 13.409 12.1974C14.783 10.9534 16.552 10.3714 18.399 10.5534C19.378 10.6284 20.293 10.9494 21.098 11.4504H21.95C22.25 11.4504 22.49 11.2104 22.49 10.9104V8.74039C22.49 8.44039 22.25 8.20039 21.95 8.20039H18.34C17.922 4.93239 15.141 2.40039 11.75 2.40039C8.359 2.40039 5.578 4.93239 5.16 8.20039H1.54C1.24 8.20039 1 8.44039 1 8.74039V10.9104C1 11.2104 1.24 11.4504 1.54 11.4504H3.38V18.3904H1.54C1.24 18.3904 1 18.6304 1 18.9304V21.1004C1 21.3904 1.24 21.6404 1.54 21.6404H10.373C10.333 21.1874 10.425 20.7334 10.679 20.3484Z" fill="#A6B0BA"/>
</g>
<mask id="mask1_55068_182878" style="mask-type:luminance" maskUnits="userSpaceOnUse" x="1" y="2" width="23" height="22">
<path fill-rule="evenodd" clip-rule="evenodd" d="M1 2.40039H23.783V23.9462H1V2.40039Z" fill="white"/>
</mask>
<g mask="url(#mask1_55068_182878)">
<path fill-rule="evenodd" clip-rule="evenodd" d="M23.6799 21.1469L22.8799 19.7459V17.2459C22.8799 14.6469 20.9799 12.2459 18.3799 12.0459C15.3799 11.7459 12.8799 14.1469 12.8799 17.0459V19.7459L12.0799 21.1469C11.7799 21.5459 12.1799 22.1469 12.6799 22.1469H15.5909C15.7839 23.1599 16.6869 23.9459 17.7499 23.9459C18.8129 23.9459 19.7159 23.1599 19.9089 22.1469H23.0799C23.5799 22.1469 23.9799 21.6469 23.6799 21.1469Z" fill="#A6B0BA"/>
</g>
</svg>
